:SAMPLES-PER-SECOND 30
:FRAME-RANGE 1-1390
:FULLY-SPECIFIED
:DEGREES
391
root  -54.1013 38.6009 -25.9263 171.937 20.7337 175.393
RightUpLeg  -8.55157 -10.7179 5.8254
RightLeg  22.805 -8.96585 -3.96511
RightFoot  -10.7928 -0.0219711 -10.5456
RightToes  -2.9104e-010 0 -3.6325e-017
Spine  18.5813 -1.47185 -3.15854
Spine1  -0.623873 -6.3572 6.73193
HEad  -2.73604 -17.5541 3.52267
LeftShoulder1  3.43584 -5.4376 -32.4265
LeftArm  79.322 -35.0297 -83.0128
LeftForeArm  -1.18531 -16.207 -12.8622
LeftHand  -0.0161846 4.15793 -0.664483
RightShoulder  13.4746 21.6998 46.6599
RightArm  43.3791 8.46106 25.6601
RightForeArm  18.0798 21.7733 4.77553
RightHand  0.673481 5.51289 6.8308
LeftUpLeg  -94.0005 25.249 -68.3544
LeftLeg  124.779 -4.68097 5.76265
LeftFoot  10.0464 1.62167 -8.90062
LeftToes  5.45371e-012 -1.3743e-010 1.09575e-010
392
root  -53.7811 37.2322 -27.0452 171.011 19.5944 177.958
RightUpLeg  -10.8497 -6.34907 9.55659
RightLeg  36.0269 -14.7564 -11.5112
RightFoot  -18.6303 -0.795017 -10.474
RightToes  -2.9104e-010 0 -3.6325e-017
Spine  19.7336 -2.09486 -1.11305
Spine1  0.602013 -6.6048 6.67317
HEad  -8.46061 -21.3521 6.8075
LeftShoulder1  3.43135 -5.14756 -33.6558
LeftArm  82.7796 -34.4433 -82.1971
LeftForeArm  -1.77392 -17.1727 -11.9401
LeftHand  -0.0315938 4.12003 0.911448
RightShoulder  13.4102 20.7543 48.3031
RightArm  41.4882 8.42662 24.3223
RightForeArm  18.0963 21.9906 4.62957
RightHand  0.632514 5.13703 6.64894
LeftUpLeg  -90.8336 25.941 -64.3606
LeftLeg  125.011 -6.65353 8.28092
LeftFoot  12.7299 0.943466 -4.79054
LeftToes  5.45371e-012 -1.3743e-010 1.09575e-010
393
root  -53.6817 36.3789 -28.2396 170.824 18.687 179.124
RightUpLeg  -11.5855 -8.46193 9.79977
RightLeg  43.0076 -12.9364 -12.8988
RightFoot  -23.7264 -1.07144 -8.37793
RightToes  -2.9104e-010 0 -3.6325e-017
Spine  18.8917 -3.06176 -0.437925
Spine1  2.62536 -7.33089 6.8015
HEad  -12.9514 -23.6782 8.87011
LeftShoulder1  3.47344 -4.94059 -35.1052
LeftArm  91.2554 -33.6735 -80.8547
LeftForeArm  -11.3042 -19.4482 -9.95462
LeftHand  -0.042418 3.58215 1.55351
RightShoulder  13.7113 20.9516 48.9937
RightArm  35.6677 10.067 22.9491
RightForeArm  18.8832 20.9235 5.30593
RightHand  0.81766 5.7561 8.15923
LeftUpLeg  -88.9798 25.1793 -63.9324
LeftLeg  122.601 -9.96902 13.6306
LeftFoot  11.2835 -0.543466 2.37103
LeftToes  5.45371e-012 -1.3743e-010 1.09575e-010
394
root  -53.2175 36.2727 -29.4788 170.513 18.4691 -179.863
RightUpLeg  -8.38796 -10.2821 10.1592
RightLeg  42.8357 -12.2438 -12.1893
RightFoot  -26.1676 -1.20364 -7.87403
RightToes  -2.9104e-010 0 -3.6325e-017
Spine  18.6724 -2.98276 -1.79873
Spine1  1.97018 -8.00569 9.21904
HEad  -13.2938 -25.8654 10.5217
LeftShoulder1  3.52579 -5.13057 -34.813
LeftArm  83.6426 -35.0899 -82.1691
LeftForeArm  -3.96662 -17.4172 -11.8077
LeftHand  -0.0346139 4.34874 1.35811
RightShoulder  13.3769 21.1436 47.3981
RightArm  38.898 10.2526 24.2337
RightForeArm  20.3953 21.79 4.63445
RightHand  0.776507 5.97838 7.56968
LeftUpLeg  -89.2482 26.2168 -64.3872
LeftLeg  123.425 -6.14237 8.08157
LeftFoot  5.21417 0.0482795 -0.549664
LeftToes  5.45371e-012 -1.3743e-010 1.09575e-010
395
root  -52.8931 36.7252 -30.7269 170.857 19.1094 179.233
RightUpLeg  -5.16739 -8.41102 9.00299
RightLeg  39.8233 -13.0216 -11.6601
RightFoot  -26.134 -0.999826 -6.33048
RightToes  -2.9104e-010 0 -3.6325e-017
Spine  17.304 -2.97457 -3.00049
Spine1  0.926562 -7.94441 9.05826
HEad  -11.8147 -29.4461 11.4617
LeftShoulder1  3.53671 -5.29497 -34.1843
LeftArm  76.8854 -35.7042 -82.5799
LeftForeArm  1.91865 -15.6123 -13.2489
LeftHand  -0.028597 4.90666 0.589552
RightShoulder  13.4875 21.418 47.2549
RightArm  41.8174 9.00379 24.35
RightForeArm  23.1979 22.8949 3.97751
RightHand  0.599909 5.49325 6.06367
LeftUpLeg  -90.8351 25.5732 -67.14
LeftLeg  124.116 -1.26076 1.24386
LeftFoot  3.35878 0.585812 -4.69886
LeftToes  5.45371e-012 -1.3743e-010 1.09575e-010
396
root  -52.4873 37.6688 -32.0399 170.711 19.8211 177.33
RightUpLeg  -0.406759 -7.05881 6.26364
RightLeg  33.721 -12.385 -9.0072
RightFoot  -23.3523 -0.61128 -4.30584
RightToes  -2.9104e-010 0 -3.6325e-017
Spine  15.6986 -2.76578 -5.11762
Spine1  0.0293764 -7.94745 9.2954
HEad  -10.4236 -33.2758 11.1811
LeftShoulder1  3.50813 -5.25455 -34.0448
LeftArm  80.6479 -33.6011 -81.2025
LeftForeArm  -3.56307 -16.9142 -12.3016
LeftHand  -0.0257238 4.369 0.245144
RightShoulder  13.3519 21.3198 46.9591
RightArm  40.5364 7.19074 24.8218
RightForeArm  23.8792 24.0482 3.88955
RightHand  0.669673 5.64476 6.70147
LeftUpLeg  -92.0045 24.9115 -69.9425
LeftLeg  125.131 -0.926736 0.749584
LeftFoot  4.795 1.05914 -7.67029
LeftToes  5.45371e-012 -1.3743e-010 1.09575e-010
